<?xml version="1.0" standalone="no"?><!DOCTYPE svg PUBLIC "-//W3C//DTD SVG 1.1//EN" "http://www.w3.org/Graphics/SVG/1.1/DTD/svg11.dtd"><svg t="1680185865940" class="icon" viewBox="0 0 1024 1024" version="1.1" xmlns="http://www.w3.org/2000/svg" p-id="15337" xmlns:xlink="http://www.w3.org/1999/xlink" width="64" height="64"><path d="M469.333333 938.666667H384a85.333333 85.333333 0 0 1-85.333333-85.333334H128v-234.666666l170.666667-128V341.333333c0-134.656 81.664-298.666667 213.333333-298.666666 131.669333 0 213.333333 164.010667 213.333333 298.666666v149.333334l170.666667 128V853.333333h-170.666667a85.333333 85.333333 0 0 1-85.333333 85.333334h-85.333333v42.666666h-85.333334v-42.666666z m85.333334-85.333334h85.333333V341.333333c0-93.568-59.605333-213.333333-128-213.333333S384 247.765333 384 341.333333v512h85.333333v-256h85.333334v256z m-256-256l-85.333334 64V768h85.333334v-170.666667z m426.666666 0v170.666667h85.333334v-106.666667L725.333333 597.333333z m-213.333333-128a85.333333 85.333333 0 1 1 0-170.666666 85.333333 85.333333 0 0 1 0 170.666666z" p-id="15338"></path></svg>